<svg width="256" height="256" viewBox="0 0 24 24" data-name="Flat Color" xmlns="http://www.w3.org/2000/svg" class="icon flat-color"><g stroke-width="0"/><g stroke-linecap="round" stroke-linejoin="round"/><circle cx="12" cy="12" r="4" style="fill:#2ca9bc"/><path d="M21 10a1 1 0 0 1-1-1V4h-5a1 1 0 0 1 0-2h5a2 2 0 0 1 2 2v5a1 1 0 0 1-1 1Zm1 10v-5a1 1 0 0 0-2 0v5h-5a1 1 0 0 0 0 2h5a2 2 0 0 0 2-2ZM4 9V4h5a1 1 0 0 0 0-2H4a2 2 0 0 0-2 2v5a1 1 0 0 0 2 0Zm6 12a1 1 0 0 0-1-1H4v-5a1 1 0 0 0-2 0v5a2 2 0 0 0 2 2h5a1 1 0 0 0 1-1Z" style="fill:#DDD"/></svg>