<svg width="256" height="256" viewBox="0 0 256 256" fill="none" xmlns="http://www.w3.org/2000/svg"><mask id="a" fill="#DDD"><path fill-rule="evenodd" clip-rule="evenodd" d="M234.667 21.333H21.333v213.333h213.333V21.333Zm-107.202 5.861-100.8 100.807 100.807 100.8 100.8-100.807-100.807-100.8Z"/></mask><path fill-rule="evenodd" clip-rule="evenodd" d="M234.667 21.333H21.333v213.333h213.333V21.333Zm-107.202 5.861-100.8 100.807 100.807 100.8 100.8-100.807-100.807-100.8Z" fill="#DDD"/><path d="M21.333 21.333V16H16v5.333h5.333Zm213.333 0h5.333V16h-5.333v5.333ZM21.333 234.667H16V240h5.333v-5.333Zm213.333 0V240h5.333v-5.333h-5.333ZM26.665 128.002l-3.771-3.772-3.772 3.772 3.772 3.771 3.771-3.771Zm100.8-100.807 3.772-3.772-3.772-3.771-3.771 3.772 3.771 3.771Zm.007 201.607-3.771 3.771 3.771 3.772 3.772-3.772-3.772-3.771Zm100.8-100.807 3.772 3.771 3.771-3.771-3.772-3.772-3.771 3.772ZM21.333 26.667h213.333V16H21.333v10.667Zm5.333 208V21.333H16v213.333h10.667Zm208-5.333H21.333v10.667h213.333v-10.667Zm-5.333-208v213.333H240V21.333h-10.667ZM30.436 131.773l100.8-100.807-7.542-7.541-100.8 100.806 7.542 7.542Zm100.806 93.258-100.806-100.8-7.542 7.542 100.807 100.8 7.541-7.542ZM224.5 124.225 123.7 225.031l7.543 7.542 100.8-100.807-7.543-7.541ZM123.694 30.966l100.807 100.801 7.541-7.543-100.806-100.8-7.542 7.543Z" fill="#DDD" mask="url(#a)"/><path fill="#DDD" d="M80 78.933h98.133v98.133H80z"/></svg>