<svg width="256" height="256" viewBox="0.6 3.1 5.2 0.1" xmlns="http://www.w3.org/2000/svg"><path fill="none" d="M0 0h6.4v6.4H0V0z"/><path d="M5.088 1.76c-.192-.32-.544-.48-.928-.48H2.24c-.384 0-.736.16-.928.48C.576 2.88.416 4.576.928 4.928 1.44 5.28 2.592 3.744 3.2 3.744S4.928 5.28 5.472 4.928c.512-.352.352-2.048-.384-3.168zM2.56 2.88h-.32v.32h-.32v-.32H1.6v-.32h.32v-.32h.32v.32h.32v.32zm1.728.16c0 .16-.128.288-.288.288s-.288-.128-.288-.288.128-.288.288-.288.288.128.288.288zm.608-.64c0 .16-.128.288-.288.288S4.32 2.56 4.32 2.4s.128-.288.288-.288.288.128.288.288z" fill="#fff"/></svg>