<?xml version="1.0" encoding="UTF-8" standalone="no"?>
<svg id="svg" xmlns="http://www.w3.org/2000/svg" xmlns:xlink="http://www.w3.org/1999/xlink" width="400" height="400" viewBox="0, 0, 400,486.15384615384613"><g id="svgg">
<path id="path0" d="M157.881 3.689 C 156.158 5.891,147.356 24.308,138.320 44.615 C 108.375 111.915,46.746 231.810,24.749 265.558 C -0.970 305.017,-1.749 310.230,16.224 322.596 C 31.561 333.148,51.174 353.769,63.297 372.088 L 71.841 384.999 112.516 344.408 L 153.190 303.817 151.562 285.862 C 149.543 263.594,153.889 252.307,169.694 238.779 L 181.615 228.575 180.808 115.057 L 180.000 1.538 170.507 0.612 C 165.286 0.103,159.605 1.487,157.881 3.689 M226.667 2.051 C 225.538 3.179,224.615 54.624,224.615 116.372 L 224.615 228.640 236.701 238.985 C 251.330 251.507,256.714 266.235,254.500 287.678 L 252.847 303.700 293.580 344.350 L 334.313 384.999 342.989 371.889 C 354.798 354.044,377.147 330.545,389.672 322.804 C 406.223 312.575,404.248 300.603,379.818 263.077 C 359.139 231.314,296.748 109.599,267.834 44.615 C 247.747 -0.529,238.651 -9.934,226.667 2.051 M220.322 329.814 C 216.864 331.771,206.761 332.392,195.499 331.341 L 176.508 329.567 132.478 373.675 C 103.044 403.162,89.243 419.069,90.846 421.662 C 92.164 423.796,97.753 438.833,103.266 455.078 L 113.289 484.615 201.911 484.615 L 290.533 484.615 294.214 476.923 C 296.238 472.692,302.139 457.462,307.328 443.077 L 316.762 416.923 294.618 394.621 L 272.474 372.320 254.698 389.910 C 238.459 405.980,236.923 408.658,236.923 420.910 C 236.923 442.598,215.832 459.253,194.990 454.022 C 157.419 444.592,161.866 389.847,200.557 385.486 C 212.811 384.105,217.132 381.490,232.024 366.441 L 249.287 348.996 237.720 337.755 C 228.095 328.401,225.175 327.068,220.322 329.814 " stroke="none" fill="#ffffff" fill-rule="evenodd"></path></g></svg>