<svg xmlns="http://www.w3.org/2000/svg" width="256" height="256" viewBox="0 0 400 486.154"><path d="M157.881 3.689c-1.723 2.202-10.525 20.619-19.561 40.926-29.945 67.3-91.574 187.195-113.571 220.943-25.719 39.459-26.498 44.672-8.525 57.038 15.337 10.552 34.95 31.173 47.073 49.492l8.544 12.911 40.675-40.591 40.674-40.591-1.628-17.955c-2.019-22.268 2.327-33.555 18.132-47.083l11.921-10.204-.807-113.518L180 1.538l-9.493-.926c-5.221-.509-10.902.875-12.626 3.077m68.786-1.638c-1.129 1.128-2.052 52.573-2.052 114.321V228.64l12.086 10.345c14.629 12.522 20.013 27.25 17.799 48.693l-1.653 16.022 40.733 40.65 40.733 40.649 8.676-13.11c11.809-17.845 34.158-41.344 46.683-49.085 16.551-10.229 14.576-22.201-9.854-59.727-20.679-31.763-83.07-153.478-111.984-218.462C247.747-.529 238.651-9.934 226.667 2.051m-6.345 327.763c-3.458 1.957-13.561 2.578-24.823 1.527l-18.991-1.774-44.03 44.108c-29.434 29.487-43.235 45.394-41.632 47.987 1.318 2.134 6.907 17.171 12.42 33.416l10.023 29.537h177.244l3.681-7.692c2.024-4.231 7.925-19.461 13.114-33.846l9.434-26.154-22.144-22.302-22.144-22.301-17.776 17.59c-16.239 16.07-17.775 18.748-17.775 31 0 21.688-21.091 38.343-41.933 33.112-37.571-9.43-33.124-64.175 5.567-68.536 12.254-1.381 16.575-3.996 31.467-19.045l17.263-17.445-11.567-11.241c-9.625-9.354-12.545-10.687-17.398-7.941" fill="#fff" fill-rule="evenodd"/></svg>