<svg xmlns="http://www.w3.org/2000/svg" fill="#DDD" width="256" height="256" viewBox="0 0 16.64 16.64"><path d="M15.52 1.28H6.88a.492.492 0 0 0-.48.48v13.12c0 .256.224.48.48.48h8.64c.256 0 .48-.224.48-.48V1.76a.492.492 0 0 0-.48-.48zm-10.88 0H1.12a.492.492 0 0 0-.48.48v1.6c0 .256.224.48.48.48h3.52c.256 0 .48-.224.48-.48v-1.6a.492.492 0 0 0-.48-.48zm0 3.84H1.12a.492.492 0 0 0-.48.48v1.6c0 .256.224.48.48.48h3.52c.256 0 .48-.224.48-.48V5.6a.492.492 0 0 0-.48-.48zm0 3.84H1.12a.492.492 0 0 0-.48.48v1.6c0 .256.224.48.48.48h3.52c.256 0 .48-.224.48-.48v-1.6a.492.492 0 0 0-.48-.48zm0 3.84H1.12a.492.492 0 0 0-.48.48v1.6c0 .256.224.48.48.48h3.52c.256 0 .48-.224.48-.48v-1.6a.492.492 0 0 0-.48-.48z"/></svg>