<svg width="256" height="256" viewBox="0 0 4.48 4.48" aria-hidden="true" xmlns="http://www.w3.org/2000/svg"><path d="M2.24.32c-.171.419-.274.693-.464 1.1.116.124.26.267.492.43a2.029 2.029 0 0 1-.548-.313c-.243.508-.626 1.232-1.4 2.623.609-.351 1.081-.568 1.52-.65a1.117 1.117 0 0 1-.029-.261l.001-.019c.01-.39.212-.69.453-.67.24.02.427.354.418.744a1.109 1.109 0 0 1-.024.209c.435.085.902.301 1.502.647l-.325-.601c-.159-.123-.324-.284-.662-.457.232.061.399.13.529.208C2.675 1.399 2.592 1.146 2.24.32z"/></svg>