<svg height="256" width="256" version="1.2" baseProfile="tiny" xmlns="http://www.w3.org/2000/svg" viewBox="0 0 448 512" xml:space="preserve"><g stroke-width="0"/><g stroke-linecap="round" stroke-linejoin="round"/><path d="M222.987 510c31.418 0 57.529-22.646 62.949-52.5H160.038c5.42 29.854 31.531 52.5 62.949 52.5zm209.884-157.941c-22.25-22.25-49.884-32.941-49.884-141.059 0-79.394-57.831-145.269-133.663-157.83h-4.141a29.865 29.865 0 0 0 7.779-20.145c0-16.555-13.42-29.975-29.975-29.975s-29.975 13.42-29.975 29.975a29.867 29.867 0 0 0 7.779 20.145h-4.141C120.818 65.731 62.987 131.606 62.987 211c0 108.118-27.643 118.809-49.893 141.059C-17.055 382.208 4.312 434 47.035 434H398.93c42.638 0 64.151-51.731 33.941-81.941z"/></svg>