<svg height="256" width="256" xmlns="http://www.w3.org/2000/svg" viewBox="0 0 512 512" xml:space="preserve"><g stroke-width="0"/><g stroke-linecap="round" stroke-linejoin="round"/><path style="fill:#ffce47" d="M433.479 205.747c75.09 43.351 100.812 139.37 57.461 214.46s-139.37 100.812-214.46 57.461A157.016 157.016 0 0 1 256 463.594l31.824-170.903 123.221-97.645a158.41 158.41 0 0 1 22.434 10.701z"/><path style="fill:#ff4181" d="M78.521 205.747c-75.09 43.351-100.812 139.37-57.461 214.46s139.37 100.812 214.46 57.461A157.016 157.016 0 0 0 256 463.594l-31.824-170.903-123.221-97.645a158.41 158.41 0 0 0-22.434 10.701z"/><path style="fill:#4eb9ff" d="M412.999 170.271c0 8.432-.667 16.707-1.953 24.775L256 256.196l-155.046-61.15a157.315 157.315 0 0 1-1.953-24.775c0-86.713 70.298-156.999 156.999-156.999s156.999 70.285 156.999 156.999z"/><path style="fill:#ff755c" d="M312.09 316.957H199.91c-8.7 54.525 12.023 110.943 56.09 146.637 44.066-35.694 64.789-92.112 56.09-146.637z"/><path style="fill:#85c250" d="m256 219.797 56.09 97.16c51.577-19.74 90.086-65.906 98.955-121.911C358.098 174.724 298.865 185 256 219.797z"/><path style="fill:#3b8bc0" d="M100.954 195.046c8.869 56.005 47.379 102.171 98.955 121.911l56.09-97.16C213.134 185 153.902 174.724 100.954 195.046z"/><path style="fill:#174461" d="M292.981 263.208c9.876 17.119 16.173 35.331 19.109 53.748-17.423 6.661-36.326 10.313-56.09 10.313s-38.667-3.652-56.09-10.313c2.936-18.418 9.233-36.629 19.109-53.749 9.876-17.107 22.494-31.667 36.981-43.411 14.486 11.746 27.105 26.305 36.981 43.412z"/></svg>