<svg xmlns="http://www.w3.org/2000/svg" width="256" height="256" viewBox="0 0 16.64 16.64" xml:space="preserve"><path d="M11.008 2.464a.315.315 0 0 0-.448.288v1.216a.62.62 0 0 0 .32.544 5.057 5.057 0 0 1 2.528 5.024c-.256 2.336-2.144 4.256-4.512 4.512C5.824 14.4 3.2 11.968 3.2 8.96a5.15 5.15 0 0 1 2.56-4.448.62.62 0 0 0 .32-.544V2.752a.315.315 0 0 0-.448-.288C2.912 3.584 1.024 6.4 1.312 9.6c.288 3.296 2.912 5.984 6.208 6.368 4.224.448 7.84-2.848 7.84-7.008a7.008 7.008 0 0 0-4.352-6.496z"/><path d="M9.28 1.12A.492.492 0 0 0 8.8.64h-.96a.492.492 0 0 0-.48.48v5.44c0 .256.224.48.48.48h.96c.256 0 .48-.224.48-.48V1.12z"/></svg>