<svg xmlns="http://www.w3.org/2000/svg" width="256" height="256" viewBox="0 0 16.64 16.64"><path d="M8.32 2.528V.832c0-.16.192-.256.352-.16l3.296 2.72a.24.24 0 0 1 0 .384L8.672 6.464c-.128.128-.352 0-.352-.128V4.608c-2.56 0-4.672 2.08-4.672 4.672s2.112 4.64 4.672 4.64 4.672-2.08 4.672-4.672c0-.736-.16-1.44-.48-2.08 0 0 0-.032-.032-.064-.064-.128-.128-.288-.192-.384-.096-.16-.192-.416 0-.576s.992-.832 1.056-.864c.064-.032.288-.256.512.064.128.192.288.48.416.704 0 .032.032.032.032.064.064.096.096.192.128.224.416.864.64 1.856.64 2.912 0 3.712-3.008 6.72-6.72 6.72S1.6 12.992 1.6 9.28s3.008-6.752 6.72-6.752z"/></svg>